<svg xmlns="http://www.w3.org/2000/svg" fill="none" viewBox="0 0 600 600"><path fill="url(#devicon-percona-1-a)" d="M300 7.7C134.3 7.7 0 138.6 0 300a290 290 0 0 0 132.5 242.5V296c1.7-94 75.9-169.9 167.2-169.9 92.5 0 167.4 77.5 167.4 173s-75 173-167.4 173c-36 0-69.2-11.8-96.5-31.8v136.5c30.4 10 63 15.6 96.8 15.6 165.7 0 300-130.9 300-292.3S465.7 7.7 300 7.7"/><path fill="#FCB42F" d="M401.2 305.1a100.1 100.1 0 1 1-200.2 0 100.1 100.1 0 0 1 200.2 0"/><defs><linearGradient id="devicon-percona-1-a" x1="30000" x2="30000" y1="7.7" y2="58466" gradientUnits="userSpaceOnUse"><stop stop-color="#FBB32F"/><stop offset=".5" stop-color="#C11511"/><stop offset="1" stop-color="#C11411"/></linearGradient></defs></svg>